<mxfile host="app.diagrams.net" modified="2023-09-27T18:24:39.639Z" agent="Mozilla/5.0 (Macintosh; Intel Mac OS X 10_15_7) AppleWebKit/605.1.15 (KHTML, like Gecko) Version/16.0 Safari/605.1.15" etag="mS4yG4GGR4sxFraSD8B7" version="21.8.2" type="github">
  <diagram name="Page-1" id="r3SKzxC9OEnPyWE4rzKE">
    <mxGraphModel dx="954" dy="624" grid="1" gridSize="10" guides="1" tooltips="1" connect="1" arrows="1" fold="1" page="1" pageScale="1" pageWidth="850" pageHeight="1100" math="1" shadow="0">
      <root>
        <mxCell id="0" />
        <mxCell id="1" parent="0" />
        <mxCell id="Hjgj2hwPhhB4s9a0-prW-1" value="&lt;font style=&quot;font-size: 15px;&quot;&gt;$$\times$$&lt;/font&gt;" style="whiteSpace=wrap;html=1;aspect=fixed;" vertex="1" parent="1">
          <mxGeometry x="200" y="160" width="80" height="80" as="geometry" />
        </mxCell>
        <mxCell id="Hjgj2hwPhhB4s9a0-prW-2" value="&lt;font style=&quot;font-size: 15px;&quot;&gt;$$+$$&lt;/font&gt;" style="whiteSpace=wrap;html=1;aspect=fixed;" vertex="1" parent="1">
          <mxGeometry x="400" y="160" width="80" height="80" as="geometry" />
        </mxCell>
      </root>
    </mxGraphModel>
  </diagram>
</mxfile>
